<svg xmlns="http://www.w3.org/2000/svg" viewBox="0 0 500 500"><g id="freepik--background-complete--inject-14"><path d="M82.59,249.56l-13.12.27-6.66.12c-2.23,0-4.47,0-6.7.05h-.44v-.44l-.06-11.19v-.51h.5l13.24.06c4.42,0,8.83.11,13.24.16h.28v.27c0,1.89-.09,3.78-.13,5.65Zm0,0-.14-5.66c0-1.86-.11-3.7-.13-5.53l.27.27c-4.41.05-8.82.16-13.24.16l-13.24.07.5-.5,0,11.19-.45-.45c2.18,0,4.36,0,6.55,0l6.58.12Z" style="fill:#ebebeb"></path><path d="M67.82,263.67l-13.12.27-6.66.12c-2.23,0-4.47,0-6.7.05H40.9v-.44l-.06-11.19V252h.5l13.24.06c4.41,0,8.83.11,13.24.16h.28v.27c0,1.89-.08,3.78-.13,5.65Zm0,0L67.68,258c-.05-1.86-.11-3.7-.13-5.53l.27.27c-4.41.05-8.83.16-13.24.16L41.34,253l.5-.49-.05,11.19-.45-.45c2.18,0,4.36,0,6.55,0l6.58.12Z" style="fill:#ebebeb"></path><path d="M458.66,263.67l-13.13.27-6.66.12c-2.22,0-4.46,0-6.69.05h-.45v-.44l-.05-11.19V252h.5l13.24.06c4.41,0,8.83.11,13.24.16h.27v.27c0,1.89-.08,3.78-.13,5.65Zm0,0-.14-5.66c0-1.86-.12-3.7-.13-5.53l.27.27c-4.41.05-8.83.16-13.24.16l-13.24.06.5-.49-.06,11.19-.44-.45c2.18,0,4.36,0,6.54,0l6.58.12Z" style="fill:#ebebeb"></path><path d="M443.89,65.2l-13.13.28-6.66.11c-2.22,0-4.46,0-6.69.06H417V65.2l0-11.19v-.5h.51l13.24.06c4.41,0,8.82.12,13.24.17h.27V54c0,1.9-.09,3.79-.13,5.65Zm0,0-.14-5.65c-.05-1.87-.12-3.71-.14-5.54l.28.27c-4.42,0-8.83.16-13.24.17l-13.24.06.5-.5-.06,11.19-.44-.45c2.18,0,4.35,0,6.54.06l6.58.11Z" style="fill:#ebebeb"></path><path d="M458.66,79.31l-13.13.28-6.66.11c-2.22,0-4.46,0-6.69.06h-.45v-.45l-.05-11.19v-.5h.5l13.24.06c4.41,0,8.83.12,13.24.17h.27v.27c0,1.9-.08,3.79-.13,5.65Zm0,0-.14-5.65c0-1.87-.12-3.71-.13-5.54l.27.27c-4.41,0-8.83.16-13.24.17l-13.24.06.5-.5-.06,11.19-.44-.45c2.18,0,4.36,0,6.54.06l6.58.11Z" style="fill:#ebebeb"></path><path d="M82.59,65.2l-13.12.28-6.66.11c-2.23,0-4.47,0-6.7.06h-.44V65.2L55.61,54v-.5h.5l13.24.06c4.42,0,8.83.12,13.24.17h.28V54c0,1.9-.09,3.79-.13,5.65Zm0,0-.14-5.65c0-1.87-.11-3.71-.13-5.54l.27.27c-4.41,0-8.82.16-13.24.17l-13.24.06.5-.5,0,11.19-.45-.45c2.18,0,4.36,0,6.55.06l6.58.11Z" style="fill:#ebebeb"></path><polygon points="75.01 153.91 187.09 136.18 175.15 61.24 63.07 78.96 75.01 153.91" style="fill:#ebebeb"></polygon><polygon points="78.92 148.5 181.7 132.25 171.24 66.64 68.46 82.89 78.92 148.5" style="fill:#dbdbdb"></polygon><path d="M81,101.87a11.32,11.32,0,1,0,9.41-13A11.33,11.33,0,0,0,81,101.87Z" style="fill:#c7c7c7"></path><polygon points="110.85 143.56 181.64 132.37 138.66 89.98 110.85 143.56" style="fill:#a6a6a6"></polygon><polygon points="83.1 147.97 141.55 138.73 107.39 112.1 83.1 147.97" style="fill:#c7c7c7"></polygon><polygon points="145.91 152.02 238.49 160.03 243.78 98.1 151.19 90.09 145.91 152.02" style="fill:#ebebeb"></polygon><polygon points="150.09 148.5 234.98 155.84 239.6 101.62 154.7 94.28 150.09 148.5" style="fill:#fff"></polygon><path d="M161,111.85a9.27,9.27,0,1,0,10-8.44A9.27,9.27,0,0,0,161,111.85Z" style="fill:#dbdbdb"></path><polygon points="176.44 150.86 234.92 155.92 209.1 113.75 176.44 150.86" style="fill:#ebebeb"></polygon><polygon points="153.51 148.9 201.79 153.07 179.88 125.17 153.51 148.9" style="fill:#dbdbdb"></polygon><rect x="421.83" width="1" height="91.16" style="fill:#c7c7c7"></rect><polygon points="390.67 121.68 393.22 127.27 451.45 127.27 453.98 121.68 429.19 104.52 415.46 104.52 390.67 121.68" style="fill:#ebebeb"></polygon><polygon points="413.74 87.99 415.46 104.52 429.19 104.52 430.92 87.99 413.74 87.99" style="fill:#dbdbdb"></polygon><polygon points="390.68 121.68 393.22 127.28 451.45 127.28 453.99 121.68 390.68 121.68" style="fill:#dbdbdb"></polygon><rect x="353.86" width="1" height="73.1" style="fill:#c7c7c7"></rect><polygon points="322.7 103.62 325.25 109.22 383.48 109.22 386.01 103.62 361.23 86.46 347.49 86.46 322.7 103.62" style="fill:#ebebeb"></polygon><polygon points="345.77 69.93 347.49 86.46 361.23 86.46 362.95 69.93 345.77 69.93" style="fill:#dbdbdb"></polygon><polygon points="322.71 103.62 325.25 109.22 383.48 109.22 386.02 103.62 322.71 103.62" style="fill:#dbdbdb"></polygon></g><g id="freepik--Shadow--inject-14"><ellipse cx="250" cy="431.75" rx="203" ry="19.22" style="fill:#ebebeb"></ellipse></g><g id="freepik--Plant--inject-14"><path d="M436.67,333.94s7.27-26.08,13.07-34.93,16.62-18.59,16.62-18.59S466.1,320.63,436.67,333.94Z" style="fill:#E51E2A"></path><path d="M437.19,333.5a125.48,125.48,0,0,0,6.63-12.64,88.34,88.34,0,0,1,3.6-13.71.07.07,0,0,1,.13,0c-1,4.12-2.08,8.21-3.1,12.31,2.93-6.34,5.72-12.77,9.21-18.77a40,40,0,0,1,3.37-8.34c0-.08.17,0,.13,0a55.14,55.14,0,0,0-2.27,6.26,62.5,62.5,0,0,1,5.52-7.62c.13-.15.38,0,.26.17-4.67,6-7.9,12.74-11,19.61a104.83,104.83,0,0,0,9.12-11.39,0,0,0,1,1,.06,0,94.18,94.18,0,0,1-9.76,12.66c-2.24,5-4.43,10.08-7.1,14.86,5.33-4.5,9.43-10.33,13.48-15.95a.12.12,0,0,1,.2.14c-4.06,6.17-8.26,12-14.09,16.54a67.06,67.06,0,0,1-3.9,6.1A.31.31,0,0,1,437.19,333.5Z" style="fill:#263238"></path><path d="M434.42,336.29s13.06-24,9.27-47.36-7.86-31.61-7.86-31.61S415.3,293.58,434.42,336.29Z" style="fill:#E51E2A"></path><path d="M429.06,298.49a113.66,113.66,0,0,0,5,19.41c0-8.55.2-17.11.43-25.66a66.6,66.6,0,0,1-2.47-15.94c0-.15.23-.14.25,0A90.59,90.59,0,0,0,434.59,290q.3-10.59.69-21.17a.1.1,0,0,1,.19,0c0,11,0,22-.08,33.08a87.68,87.68,0,0,0,3.77-13.1s.08,0,.08,0a51.47,51.47,0,0,1-3.86,14.91c-.05,7.05-.13,14.09-.28,21.14,2.21-7.49,4.57-14.75,5.2-22.67a.09.09,0,0,1,.17,0c-.17,8.73-2.42,17.59-5.3,25.8a.57.57,0,0,1-.15.21c-.06,2.57-.14,5.15-.22,7.72a.29.29,0,0,1-.58,0q-.15-7.9-.13-15.8a71.19,71.19,0,0,1-5.15-21.65C428.94,298.44,429.05,298.42,429.06,298.49Z" style="fill:#263238"></path><path d="M430,294.77a44.17,44.17,0,0,1,.92,6.35c0,.07-.11.08-.13,0a45.12,45.12,0,0,1-1.07-6.34C429.65,294.64,429.92,294.61,430,294.77Z" style="fill:#263238"></path><path d="M437.59,277.19c0-.07.12-.05.12,0a16.23,16.23,0,0,1-.65,4.38c0,.12-.2.07-.18,0C437.17,280.1,437.34,278.64,437.59,277.19Z" style="fill:#263238"></path><path d="M429.66,338.13s.53-25.1-6.67-37.58a54.15,54.15,0,0,0-19.14-18.83S408.66,326,429.66,338.13Z" style="fill:#E51E2A"></path><path d="M416.54,316.67A93.62,93.62,0,0,0,426.28,329q-2.16-7.71-5-15.14c-4-3.54-8-7.21-10.52-12.05a.07.07,0,0,1,.12-.07,50.27,50.27,0,0,0,10,11,193.32,193.32,0,0,0-10-21.82.16.16,0,0,1,.28-.17,119,119,0,0,1,6.28,11.46c-.67-2.68-1.21-5.43-1.9-8.09a.06.06,0,0,1,.11,0,45.35,45.35,0,0,1,3,10.64A128.19,128.19,0,0,1,424.91,322c-.19-3.76-.42-7.51-.81-11.26,0-.07.11-.09.12,0a61,61,0,0,1,1.09,12.65q1.56,5.61,2.62,11.33c0,.11-.14.15-.16.05-.39-1.6-.82-3.19-1.25-4.77,0,0-.06,0-.08,0a51.06,51.06,0,0,1-9.94-13.21S416.52,316.64,416.54,316.67Z" style="fill:#263238"></path><path d="M408.19,296.24c.81.87,1.54,1.78,2.32,2.67a21.52,21.52,0,0,1,2.07,2.42,0,0,0,0,1-.06.06,12.14,12.14,0,0,1-2.39-2.36,19.79,19.79,0,0,1-2.05-2.7C408,296.26,408.14,296.18,408.19,296.24Z" style="fill:#263238"></path><path d="M451.05,335.07,450.14,347l-2.73,35.94H423.55L420.82,347l-.91-11.89h31.14Z" style="fill:#455a64"></path><path d="M451.05,335.07,450.14,347H420.82l-.91-11.89h31.14Z" style="fill:#37474f"></path><rect x="417.79" y="329.23" width="35.38" height="9.12" transform="translate(870.96 667.58) rotate(180)" style="fill:#455a64"></rect></g><g id="freepik--Floor--inject-14"><polygon points="36.47 382.86 89.85 382.62 143.23 382.53 250 382.37 356.77 382.53 410.15 382.62 463.53 382.86 410.15 383.11 356.77 383.2 250 383.36 143.23 383.19 89.85 383.11 36.47 382.86" style="fill:#263238"></polygon></g><g id="freepik--Folder--inject-14"><polygon points="77.62 431 304.47 431 279.63 274.19 52.79 274.19 77.62 431" style="fill:#E51E2A"></polygon><polygon points="196.91 257.95 277.06 257.95 279.63 274.19 194.88 274.19 196.91 257.95" style="fill:#E51E2A"></polygon><g style="opacity:0.1"><polygon points="77.62 431 304.47 431 279.63 274.19 52.79 274.19 77.62 431"></polygon><polygon points="196.91 257.95 277.06 257.95 279.63 274.19 194.88 274.19 196.91 257.95"></polygon></g><path d="M84.26,164.16a14.79,14.79,0,0,1-.5-4,15.16,15.16,0,0,1,.5-4,14.39,14.39,0,0,1,.5,4A15.18,15.18,0,0,1,84.26,164.16Z" style="fill:#263238"></path><path d="M76,166.53a16.78,16.78,0,0,1-4-7,16.78,16.78,0,0,1,4,7Z" style="fill:#263238"></path><path d="M70.09,172.7a14.91,14.91,0,0,1-3.75-1.59,14.73,14.73,0,0,1-3.25-2.46,14.55,14.55,0,0,1,3.75,1.59A14.73,14.73,0,0,1,70.09,172.7Z" style="fill:#263238"></path><path d="M68,181A16.37,16.37,0,0,1,60,181a14.66,14.66,0,0,1,4-.49A15,15,0,0,1,68,181Z" style="fill:#263238"></path><path d="M70.4,189.24a16.5,16.5,0,0,1-7,4,14.43,14.43,0,0,1,3.26-2.45A14.91,14.91,0,0,1,70.4,189.24Z" style="fill:#263238"></path><path d="M76.56,195.19A14.85,14.85,0,0,1,75,198.94a14.4,14.4,0,0,1-2.45,3.24,14.63,14.63,0,0,1,1.59-3.74A15,15,0,0,1,76.56,195.19Z" style="fill:#263238"></path><path d="M84.88,197.25a14.75,14.75,0,0,1,.49,4,14.3,14.3,0,0,1-.5,4,14.3,14.3,0,0,1-.5-4A14.73,14.73,0,0,1,84.88,197.25Z" style="fill:#263238"></path><path d="M93.1,194.88a14.38,14.38,0,0,1,2.45,3.25,14.85,14.85,0,0,1,1.59,3.75,14.38,14.38,0,0,1-2.45-3.25A14.7,14.7,0,0,1,93.1,194.88Z" style="fill:#263238"></path><path d="M99.05,188.71a16.59,16.59,0,0,1,7,4,16.43,16.43,0,0,1-7-4Z" style="fill:#263238"></path><path d="M101.11,180.39a14.66,14.66,0,0,1,4-.49,14.39,14.39,0,0,1,4,.5,16.41,16.41,0,0,1-8.08,0Z" style="fill:#263238"></path><path d="M98.74,172.16a15,15,0,0,1,3.25-2.45,14.53,14.53,0,0,1,3.75-1.58,15,15,0,0,1-3.25,2.45A15.2,15.2,0,0,1,98.74,172.16Z" style="fill:#263238"></path><path d="M92.57,166.22a14.55,14.55,0,0,1,1.59-3.75,14.73,14.73,0,0,1,2.46-3.25,16.83,16.83,0,0,1-4.05,7Z" style="fill:#263238"></path><polygon points="99.85 286.21 258.84 263.54 243.56 157.22 84.57 179.89 99.85 286.21" style="fill:#ebebeb"></polygon><polygon points="105.5 278.65 251.3 257.86 237.9 164.78 92.11 185.57 105.5 278.65" style="fill:#E51E2A"></polygon><path d="M109.77,208.86a14.72,14.72,0,1,0,12.49-16.65A14.7,14.7,0,0,0,109.77,208.86Z" style="opacity:0.1"></path><polygon points="150.79 272.34 251.22 258.02 191.3 197.12 150.79 272.34" style="opacity:0.2"></polygon><polygon points="111.43 277.99 194.34 266.16 146.57 227.75 111.43 277.99" style="fill:#E51E2A"></polygon><polygon points="111.43 277.99 194.34 266.16 146.57 227.75 111.43 277.99" style="opacity:0.1"></polygon><polygon points="146.03 286.69 303.96 325.41 329.74 219.75 171.81 181.03 146.03 286.69" style="fill:#ebebeb"></polygon><polygon points="154.2 281.72 299.02 317.22 321.57 224.72 176.76 189.22 154.2 281.72" style="fill:#fff"></polygon><path d="M182.85,221.27a16.23,16.23,0,1,0,19.62-11.89A16.22,16.22,0,0,0,182.85,221.27Z" style="fill:#dbdbdb"></path><polygon points="199.13 292.88 298.89 317.34 265.58 237.51 199.13 292.88" style="fill:#dbdbdb"></polygon><polygon points="160.02 283.33 242.38 303.52 211.99 249.4 160.02 283.33" style="fill:#ebebeb"></polygon><polygon points="69.87 339.33 216.17 339.02 215.86 241.18 69.56 241.48 69.87 339.33" style="fill:#ebebeb"></polygon><polygon points="75.93 333.22 210.08 332.94 209.8 247.28 75.64 247.56 75.93 333.22" style="fill:#455a64"></polygon><path d="M87.89,274.24a14.6,14.6,0,1,0,14.57-14.63A14.61,14.61,0,0,0,87.89,274.24Z" style="fill:#37474f"></path><polygon points="117.58 333.27 209.99 333.08 163.66 270.54 117.58 333.27" style="fill:#263238"></polygon><polygon points="81.36 333.37 157.65 333.21 119.42 292.51 81.36 333.37" style="fill:#37474f"></polygon><polygon points="190.77 393.42 333.47 407.21 342.59 311.76 199.9 297.97 190.77 393.42" style="fill:#ebebeb"></polygon><polygon points="197.27 388.05 328.12 400.7 336.1 317.13 205.24 304.48 197.27 388.05" style="fill:#fff"></polygon><path d="M214.62,331.68a14.3,14.3,0,1,0,15.61-12.86A14.31,14.31,0,0,0,214.62,331.68Z" style="fill:#dbdbdb"></path><polygon points="237.89 392.11 328.02 400.82 288.86 335.38 237.89 392.11" style="fill:#dbdbdb"></polygon><polygon points="202.55 388.72 276.97 395.91 243.61 352.54 202.55 388.72" style="fill:#ebebeb"></polygon><polygon points="77.52 431 304.36 431 321.86 287.2 95.01 287.2 77.52 431" style="fill:#E51E2A"></polygon><polygon points="243.52 272.31 323.67 272.31 321.86 287.2 237.1 287.2 243.52 272.31" style="fill:#E51E2A"></polygon></g><g id="freepik--Character--inject-14"><path d="M408.29,413.84c3.46-1.87,8.14-2.75,11.79-1,.14.07.05.27-.08.27a54.08,54.08,0,0,0-11.55,1.22A.25.25,0,0,1,408.29,413.84Z" style="fill:#263238"></path><path d="M406.14,416.29c3.46-1.86,8.15-2.74,11.8-1,.14.06,0,.26-.09.26a54.64,54.64,0,0,0-11.54,1.22A.25.25,0,0,1,406.14,416.29Z" style="fill:#263238"></path><path d="M404,418.75c3.46-1.87,8.14-2.75,11.8-1,.14.07,0,.27-.09.27a54.08,54.08,0,0,0-11.55,1.22A.25.25,0,0,1,404,418.75Z" style="fill:#263238"></path><path d="M401.86,421.2c3.46-1.87,8.14-2.75,11.79-1,.14.07.05.27-.08.27A54.08,54.08,0,0,0,402,421.66.25.25,0,0,1,401.86,421.2Z" style="fill:#263238"></path><path d="M402.09,412.22c3.25,1.19,6.9.93,10.31,1.08.35,0,.5-.36.43-.64a.11.11,0,0,0,0-.16,20.64,20.64,0,0,0-8.37-6.62c-1.95-.8-4.94-.83-5.74,1.63S400.19,411.53,402.09,412.22Zm-1.89-2.66c-1.94-3.83,3.07-3.1,4.49-2.46a21.82,21.82,0,0,1,2.62,1.49c1.77,1.12,3.34,2.47,5,3.75-1.67-.17-3.33-.21-5-.32C405.3,411.88,401.27,411.67,400.2,409.56Z" style="fill:#263238"></path><path d="M423.36,403c-1.63-2-4.4-.93-5.94.51a20.69,20.69,0,0,0-5.49,9.16c0,.08,0,.12.1.13,0,.29.31.59.63.45,3.13-1.35,6.64-2.4,9.26-4.67C423.45,407.21,424.9,404.85,423.36,403ZM417,410.19c-1.52.7-3.06,1.32-4.56,2.08,1.08-1.79,2.07-3.61,3.32-5.28a22.61,22.61,0,0,1,1.93-2.32c1.09-1.1,5.52-3.56,5.07.71C422.48,407.73,418.8,409.35,417,410.19Z" style="fill:#263238"></path><path d="M447.07,408.58c.23,1.33.44,2.64.65,3.9,1.32,8.14,2.1,14.41,1.49,15-1.87,1.79-58,13.05-60.09,12.79s-1.49-6.25.34-8.42c1.11-1.32,8.78-7,14.62-11.22a0,0,0,0,0,0,0c3.76-2.71,6.76-4.85,6.76-4.85l-11.26-36.4,37.72-7.42S446.71,406.42,447.07,408.58Z" style="fill:#ad6359"></path><path d="M389.11,440.25c2.1.25,58.23-11,60.1-12.79.61-.58-.17-6.85-1.5-15-.2-1.26-.41-2.57-.64-3.91-.13-.75-1.37-5.46-2.91-11.26l-36.72,7.37,3.42,11.05s-3,2.13-6.76,4.85l0,0c-5.84,4.24-13.51,9.9-14.62,11.22C387.63,434,387,440,389.11,440.25Z" style="fill:#ebebeb"></path><path d="M388.65,440.61c1.39.17,25.73-4.67,43.37-8.63,4.08-.91,7.81-1.79,10.8-2.53,4.13-1,6.88-1.83,7.28-2.21.68-.66-3.62-23.67-4.37-26.34l-37.32,7.72,2.19,6.9S390.83,429.76,389,432,386.51,440.35,388.65,440.61Z" style="fill:#E51E2A"></path><path d="M389.53,438c9.57-2.21,48.4-10.24,58-11.7.08,0,.09,0,0,.06-9.44,2.4-48.33,10.11-58,11.8C389.36,438.24,389.33,438.09,389.53,438Z" style="fill:#263238"></path><path d="M399.63,399.8c-.41-.2-11.34-47.14-16.33-66.29-7.2-27.63-14.17-72.65-16.27-82a138,138,0,0,1-8.72-33.65s45.38,0,45.38,0,11.9,22.77,5.76,38.86c-.56,1.47,7.93,58.34,12.31,67.54,3.8,8,21.1,66.28,21.1,66.28Z" style="fill:#263238"></path><path d="M399.87,390.17c1.11-.4,2.3-.6,3.44-.9s2.42-.61,3.64-.89c2.43-.55,4.86-1.07,7.3-1.6,4.87-1,9.76-2,14.64-3,1.34-.28,2.68-.54,4-.79a22.63,22.63,0,0,1,4.07-.62.08.08,0,0,1,0,.14,21,21,0,0,1-3.41,1c-1.21.3-2.42.58-3.64.86-2.39.54-4.79,1.09-7.18,1.61-4.84,1-9.66,2.13-14.51,3.11-1.38.27-2.75.56-4.13.78s-2.76.59-4.15.7C399.8,390.51,399.67,390.25,399.87,390.17Z" style="fill:#37474f"></path><path d="M378.91,249.39c.87,4.73,1.6,9.48,2.38,14.22.4,2.42.93,4.81,1.33,7.23s.78,4.74,1.16,7.12q2.3,14.31,4.57,28.64l2.28,14.22a131.06,131.06,0,0,0,2.87,13.86c1.25,4.56,2.72,9.06,4.11,13.58s2.85,9.26,4.27,13.9c2.83,9.21,2.43,10.78,5,20.07.31,1.16.63,2.31,1,3.47,0,.13-.16.18-.21.05-3.13-9.13-2.69-10.7-5.6-19.9s-5.83-18.31-8.57-27.52a118.07,118.07,0,0,1-3.2-13.65c-.81-4.74-1.51-9.51-2.27-14.26q-2.28-14.31-4.57-28.64c-.75-4.69-1.58-9.38-2.16-14.1-.6-4.89-1.44-9.74-2.17-14.61-.18-1.19-.35-2.38-.51-3.58C378.49,249.25,378.86,249.14,378.91,249.39Z" style="fill:#37474f"></path><path d="M339.89,417c3.86-.74,8.59-.18,11.56,2.56.11.1,0,.26-.16.22a55.17,55.17,0,0,0-11.39-2.29A.25.25,0,0,1,339.89,417Z" style="fill:#263238"></path><path d="M337.11,418.67c3.86-.75,8.59-.18,11.56,2.55.11.11,0,.27-.16.23a55,55,0,0,0-11.39-2.29A.25.25,0,0,1,337.11,418.67Z" style="fill:#263238"></path><path d="M334.33,420.37c3.86-.75,8.59-.18,11.56,2.55.11.11,0,.27-.16.23a53.76,53.76,0,0,0-11.39-2.29A.25.25,0,0,1,334.33,420.37Z" style="fill:#263238"></path><path d="M331.55,422.07c3.86-.75,8.59-.18,11.56,2.55.11.11,0,.27-.16.23a53.79,53.79,0,0,0-11.38-2.29A.25.25,0,0,1,331.55,422.07Z" style="fill:#263238"></path><path d="M334.46,413.57c2.74,2.11,6.31,3,9.51,4.12.33.12.59-.19.6-.49a.1.1,0,0,0,.09-.14,20.6,20.6,0,0,0-6-8.82c-1.62-1.34-4.45-2.26-6-.16S332.85,412.34,334.46,413.57Zm-1-3.1c-.7-4.24,3.86-2,5-1a22.54,22.54,0,0,1,2.06,2.2,59.87,59.87,0,0,1,3.62,5.07c-1.53-.67-3.11-1.2-4.67-1.81C337.62,414.21,333.84,412.8,333.45,410.47Z" style="fill:#263238"></path><path d="M357.53,411.09c-.95-2.4-3.92-2.2-5.83-1.29a20.74,20.74,0,0,0-8,7.1.1.1,0,0,0,.06.15.47.47,0,0,0,.46.62c3.39-.35,7.05-.3,10.23-1.68C356.33,415.19,358.43,413.37,357.53,411.09Zm-8.25,5c-1.66.22-3.32.35-5,.62a61,61,0,0,1,4.75-4,21.08,21.08,0,0,1,2.54-1.63c1.37-.73,6.33-1.75,4.62,2.18C355.26,415.4,351.26,415.84,349.28,416.09Z" style="fill:#263238"></path><path d="M378.6,412.52c0,2.29-1,25.22-1.7,25.66-2.18,1.39-59.43,1.56-61.43.9s-.25-6.42,2-8.2c1.35-1.08,10-5.15,16.52-8.17l0,0c4.22-1.94,7.57-3.45,7.57-3.45l-.18-6.72-.52-30.6h37.82S378.86,397.67,378.6,412.52Z" style="fill:#ad6359"></path><path d="M315.46,439.07c2,.66,59.26.49,61.44-.89.71-.45,1.67-23.38,1.7-25.66,0-1.52,0-3,.06-4.56H341.28l.08,4.56.19,6.71s-3.36,1.52-7.57,3.46h0c-6.55,3-15.17,7.1-16.52,8.18C315.22,432.65,313.47,438.41,315.46,439.07Z" style="fill:#ebebeb"></path><path d="M314.11,439.54c1.33.44,26.15.44,44.22,0,4.18-.1,8-.23,11.09-.38,4.26-.21,7.11-.45,7.57-.74.8-.52,1.94-23.93,1.72-26.69l-37.83.2-.13,7.21s-22.38,10.17-24.65,12S312.07,438.86,314.11,439.54Z" style="fill:#E51E2A"></path><path d="M315.48,437.19c9.82-.3,49.46-.59,59.19-.14.08,0,.08.05,0,.06-9.73.51-49.37.48-59.19.25C315.27,437.35,315.27,437.2,315.48,437.19Z" style="fill:#263238"></path><path d="M385.36,258.43s-6.47,63.44-6.57,64.93c-.05.59,2.77,78.11,2.77,78.11H338.8s1.52-72.64,2.17-81.6c.08-1,2.84-65.53,15.29-102h47.49s-.41,21.45-10.17,37A81.18,81.18,0,0,0,385.36,258.43Z" style="fill:#263238"></path><path d="M341.5,393.46c1.17-.17,2.37-.13,3.55-.19s2.5-.12,3.74-.15c2.5-.05,5-.07,7.48-.1,5-.06,10,0,15,0,1.37,0,2.73,0,4.09,0a22.57,22.57,0,0,1,4.11.22c.07,0,.06.12,0,.14a20.9,20.9,0,0,1-3.53.26c-1.25.05-2.49.08-3.74.11-2.45,0-4.91.1-7.36.13-5,.07-9.89.15-14.84.14-1.4,0-2.8,0-4.2-.06s-2.83,0-4.21-.15C341.37,393.78,341.29,393.49,341.5,393.46Z" style="fill:#37474f"></path><path d="M351.19,326.91c1.12-22.85,3.53-45.6,6.55-68.27,1.66-12.41,3.6-24.81,6.95-36.89a0,0,0,0,1,.08,0,292.9,292.9,0,0,0-5.9,33.53c-1.42,11.16-2.76,22.35-3.9,33.54-2.3,22.72-3.33,45.53-3.47,68.36-.08,12.85.27,18.9.62,31.74,0,.12-.18.11-.19,0C350.05,366.09,350.07,349.79,351.19,326.91Z" style="fill:#37474f"></path><path d="M353.48,226.67c0-.08.15-.06.14,0-.18,2.7-.63,5.65.57,8.2,1.06,2.25,3.07,3.52,4.93,5,.06,0,0,.14-.08.12-2.46-.75-4.92-2.12-5.89-4.65C352.06,232.57,352.64,229.48,353.48,226.67Z" style="fill:#37474f"></path><path d="M374.08,257a45.27,45.27,0,0,1,5.93.2,40.09,40.09,0,0,0,5.8-.11,21.63,21.63,0,0,0,2.88-.48c1-.23,1.92-.59,2.89-.86a5.37,5.37,0,0,1,2.67.1c1,.23,2.06.4,3.11.53a30.34,30.34,0,0,0,7.19.19c.09,0,.13.12,0,.14a29.24,29.24,0,0,1-6.12.64,24,24,0,0,1-3.15-.29,10.15,10.15,0,0,0-2.94-.38,26.84,26.84,0,0,0-2.87,1,22.54,22.54,0,0,1-2.92.59,30.33,30.33,0,0,1-5.95.19,26.4,26.4,0,0,1-6.62-1A.21.21,0,0,1,374.08,257Z" style="fill:#37474f"></path><path d="M378.68,319.87a.07.07,0,0,1,.05,0,.07.07,0,0,1,.06,0,.09.09,0,0,1,0,.06l0,.15a0,0,0,0,1,0,0l0,0a.08.08,0,0,1-.06,0l0-.15A.07.07,0,0,1,378.68,319.87Z" style="fill:#37474f"></path><path d="M379.81,309q.57-6.18,1.21-12.34c.86-8.22,1.68-16.44,2.53-24.67.48-4.66.82-9.36,1.59-14,0-.12.2-.13.2,0-.07,4.12-.51,8.25-.86,12.35s-.71,8.23-1.1,12.34c-.77,8.23-1.51,16.46-2.47,24.67q-.41,3.49-.87,7c-.3,2.33-.71,4.65-1,7,0,.1-.16.1-.16,0C379.24,317.18,379.43,313.05,379.81,309Z" style="fill:#37474f"></path><polygon points="284.58 201.61 391.87 187.24 382.18 115.5 274.89 129.86 284.58 201.61" style="fill:#ebebeb"></polygon><polygon points="288.44 196.54 386.81 183.37 378.32 120.56 279.94 133.73 288.44 196.54" style="fill:#E51E2A"></polygon><path d="M292.53,149.42a9.1,9.1,0,1,0,7.81-10.22A9.09,9.09,0,0,0,292.53,149.42Z" style="opacity:0.1"></path><polygon points="319 192.55 386.76 183.47 346.73 142.08 319 192.55" style="opacity:0.2"></polygon><polygon points="292.43 196.13 348.38 188.64 316.4 162.47 292.43 196.13" style="fill:#E51E2A"></polygon><polygon points="292.43 196.13 348.38 188.64 316.4 162.47 292.43 196.13" style="opacity:0.1"></polygon><path d="M367.24,129.65c-.95.18-5.16-.05-7.72,3.93-2.42,3.77-2.66,14.77-3.08,17.19s-3.52,3-4.09,5.79c-.48,2.42,1.31,3.19,1.59,4.93.23,1.35-1,3.46.35,5.39,1.24,1.76,3.19,1.25,4.42,1.74s2.15,3.22,4.41,3.83,4.09-1.53,5.26-1.59,2.79,3.45,6.6,2.9,4.71-3.87,6.25-4.6,5.58.11,7.27-2,1.84-4.75,2.59-5.77,2.48-1,3.35-3.28-1.3-3.61-1.72-5.54c-.29-1.35.84-2.67-.14-4.69-1.34-2.78-4.79-1.95-6.3-4.8-1.19-2.23-4-12.08-10.16-14.16C371.85,127.51,367.24,129.65,367.24,129.65Z" style="fill:#263238"></path><path d="M356.52,150.19a3.51,3.51,0,0,1-.94,1.35l-1.18,1.15a10.46,10.46,0,0,0-2.06,2.47,3.3,3.3,0,0,0-.19,2.93,5.32,5.32,0,0,0,.88,1.28,5.87,5.87,0,0,1,1,1.39,2.85,2.85,0,0,1,0,1.81c-.15.55-.31,1.06-.43,1.58a3.89,3.89,0,0,0,.29,3,2.18,2.18,0,0,0,1.11,1,4.17,4.17,0,0,0,1.55.24c.54,0,1.08,0,1.64-.07a2.77,2.77,0,0,1,1.61.26,2.89,2.89,0,0,0-1.6-.1c-.54.07-1.08.17-1.64.22a4.49,4.49,0,0,1-1.7-.17,2.74,2.74,0,0,1-1.38-1.08A4.24,4.24,0,0,1,353,164c.12-.55.28-1.08.41-1.6a2.32,2.32,0,0,0,0-1.42c-.38-.86-1.42-1.58-1.86-2.69a3.71,3.71,0,0,1,.29-3.4,10.62,10.62,0,0,1,2.27-2.45l1.27-1.05A3.78,3.78,0,0,0,356.52,150.19Z" style="fill:#263238"></path><path d="M382.05,134.23a47.31,47.31,0,0,1,2.85,5.17c.46.86.9,1.74,1.42,2.55a7,7,0,0,0,.86,1.11.85.85,0,0,0,.24.2.94.94,0,0,0,.28.16c.21.09.43.18.66.26.9.34,1.86.63,2.77,1.08a5.06,5.06,0,0,1,2.29,2,3.09,3.09,0,0,1,.41,1.52,4.23,4.23,0,0,1-.36,1.48,6.37,6.37,0,0,0-.75,2.81,6.06,6.06,0,0,1,.46-2.91,4,4,0,0,0,.25-1.38A2.81,2.81,0,0,0,393,147a4.82,4.82,0,0,0-2.13-1.75,26.78,26.78,0,0,0-2.74-1c-.23-.09-.47-.18-.7-.29a2.19,2.19,0,0,1-.68-.49,7.24,7.24,0,0,1-.92-1.24,22,22,0,0,1-1.37-2.64l-1.19-2.7A26,26,0,0,0,382.05,134.23Z" style="fill:#263238"></path><path d="M392,160.69a5.28,5.28,0,0,0-.51,2c-.11.69-.21,1.39-.35,2.09a10.22,10.22,0,0,1-.61,2.07,4.64,4.64,0,0,1-1.3,1.83,5.83,5.83,0,0,1-4.26.77c-.71-.08-1.41-.21-2.1-.28a4.49,4.49,0,0,0-2.06.14,4,4,0,0,1,2.08-.44c.71,0,1.42.07,2.11.1a5.94,5.94,0,0,0,3.85-.79,4.17,4.17,0,0,0,1.14-1.57,13.9,13.9,0,0,0,.68-1.94c.2-.67.35-1.36.52-2,.09-.34.19-.69.3-1A2,2,0,0,1,392,160.69Z" style="fill:#263238"></path><path d="M379.32,164.49c-.07.94-3.43,7.52-7.6,8-1.36.15-2.53-7.22-2.53-7.22l-.21-.53-3-7.34,8-7.21,1.17-1s.67,2.07,1.48,4.64l.12.37c.05.14.1.28.14.42.12.38.25.77.37,1.17l.27.9c.09.32.17.63.27.94A51.48,51.48,0,0,1,379.32,164.49Z" style="fill:#ad6359"></path><path d="M376.71,153.86A15.85,15.85,0,0,1,369,164.74l-3-7.34,8-7.21,1.17-1S375.9,151.29,376.71,153.86Z" style="fill:#263238"></path><path d="M353.27,145.48c-2.18,13.72,5.73,16.71,8.75,17,2.7.3,11.88,1.53,15.47-11.89s-2.09-18.77-8.19-20.06S355.46,131.76,353.27,145.48Z" style="fill:#ad6359"></path><path d="M354.42,143.62c.33,0,.63-.07,1-.11a1.6,1.6,0,0,0,.95-.3.51.51,0,0,0,.05-.61,1.25,1.25,0,0,0-1.18-.39,1.8,1.8,0,0,0-1.18.54A.52.52,0,0,0,354.42,143.62Z" style="fill:#263238"></path><path d="M363.07,144.79a8.94,8.94,0,0,1-.92-.28,1.55,1.55,0,0,1-.88-.47.5.5,0,0,1,.05-.6,1.26,1.26,0,0,1,1.23-.18,1.84,1.84,0,0,1,1.07.74A.53.53,0,0,1,363.07,144.79Z" style="fill:#263238"></path><path d="M360.73,148s.06.06.06.09c-.14.94-.13,2,.68,2.44,0,0,0,.06,0,.06C360.44,150.33,360.45,148.88,360.73,148Z" style="fill:#263238"></path><path d="M361.68,147.13c1.52.05,1.3,3.1-.11,3S360.4,147.08,361.68,147.13Z" style="fill:#263238"></path><path d="M362.26,147.33c.25.19.49.51.81.57s.67-.24.94-.52c0,0,.05,0,.05,0,0,.59-.3,1.17-.94,1.21s-.94-.51-1.05-1.1C362.05,147.41,362.16,147.25,362.26,147.33Z" style="fill:#263238"></path><path d="M355.94,147.23s-.07,0-.07.08c0,.95-.23,2-1.1,2.28,0,0,0,.06,0,.06C355.82,149.57,356.07,148.13,355.94,147.23Z" style="fill:#263238"></path><path d="M355.17,146.19c-1.52-.21-1.83,2.83-.43,3S356.43,146.37,355.17,146.19Z" style="fill:#263238"></path><path d="M354.51,146.33c-.26.13-.52.4-.81.39s-.55-.37-.73-.7c0,0,0,0-.05,0-.07.58.06,1.21.6,1.38s.92-.31,1.12-.87C354.68,146.44,354.61,146.27,354.51,146.33Z" style="fill:#263238"></path><path d="M360.49,155.36c-.21.23-.42.55-.76.61a2.82,2.82,0,0,1-1-.17,0,0,0,0,0,0,0,1.31,1.31,0,0,0,1.24.43,1,1,0,0,0,.68-.89S360.52,155.32,360.49,155.36Z" style="fill:#263238"></path><path d="M356.56,151.56s-.31,1.39-.37,2.05c0,.07.15.11.38.14h0a3.15,3.15,0,0,0,3.17-.92c.05-.06,0-.13-.09-.1a4.77,4.77,0,0,1-2.95.59c0-.19.61-2.37.51-2.39a5.89,5.89,0,0,0-1.54.22c.57-2.92,1.6-5.72,2.12-8.63a.09.09,0,0,0-.17-.06,48.36,48.36,0,0,0-2.68,9.2C354.88,152,356.29,151.65,356.56,151.56Z" style="fill:#263238"></path><path d="M357.05,153.52a3.31,3.31,0,0,0,1.16,1.19,1.57,1.57,0,0,0,.89.17c.66-.08.76-.66.71-1.19a3.79,3.79,0,0,0-.18-.81A4.27,4.27,0,0,1,357.05,153.52Z" style="fill:#263238"></path><path d="M358.21,154.71a1.57,1.57,0,0,0,.89.17c.66-.08.76-.66.71-1.19A1.54,1.54,0,0,0,358.21,154.71Z" style="fill:#ff99ba"></path><path d="M376.74,153c-1.46-.43-5.25-6.17-3.72-13.35,0,0-.93,6.55-.67,7.6s-1.62-2.79-.47-8.6a23.86,23.86,0,0,1-6.63,1.7c-2.9.14-4.56-.27-4.71-.51s4.15-.58,5.52-1.58c0,0-8,1.69-11.42,1.18-.39-.06,1-8.12,6.92-10.3s13.29,3.35,15,6c0,0,2.49,1,4.42,5.43S378.31,153.5,376.74,153Z" style="fill:#263238"></path><path d="M371.89,148.36s3.19-4.22,5.11-3.07-.58,7.35-2.92,8.13A2.35,2.35,0,0,1,371,152Z" style="fill:#ad6359"></path><path d="M376.24,147.05a0,0,0,0,1,0,.06,6,6,0,0,0-3.2,3.6,1.3,1.3,0,0,1,1.95-.28s0,.09-.05.08a1.44,1.44,0,0,0-1.6.45,6.61,6.61,0,0,0-.81,1.26c-.08.14-.34.05-.28-.11l0,0C372.31,150,374,147.18,376.24,147.05Z" style="fill:#263238"></path><path d="M355.16,205.19l1.1,12.64s35.79.81,47.43,0c0,0-5.56-38.52-18.34-50.09-6.84-6.2-11.47-7.53-16.16-2.78-1.18,1.2-15.32,19.88-16.8,27C351.09,198.26,355.16,205.19,355.16,205.19Z" style="fill:#455a64"></path><path d="M371,168.77a1,1,0,1,1-1-1A1,1,0,0,1,371,168.77Zm10-1a1,1,0,1,0,1,1A1,1,0,0,0,381,167.81Zm-6.11-5.72a.94.94,0,0,0,.61.23,1,1,0,0,0,.54-.16A7.47,7.47,0,0,0,374.88,162.09ZM359,183.16a1,1,0,1,0,.95,1A1,1,0,0,0,359,183.16Zm11,0a1,1,0,1,0,1,1A.95.95,0,0,0,370,183.16Zm11,0a1,1,0,1,0,1,1A.94.94,0,0,0,381,183.16Zm11,0a1,1,0,1,0,.95,1A.94.94,0,0,0,392,183.16Zm-27.49-7.41a1,1,0,1,0,.95.95A1,1,0,0,0,364.5,175.75Zm11,0a1,1,0,1,0,1,.95A1,1,0,0,0,375.49,175.75Zm11,0a1,1,0,1,0,.95.95A.95.95,0,0,0,386.49,175.75ZM359,198.5a1,1,0,1,0,.95.95A1,1,0,0,0,359,198.5Zm11,0a1,1,0,0,0,0,1.91,1,1,0,1,0,0-1.91Zm11,0a1,1,0,0,0,0,1.91,1,1,0,1,0,0-1.91Zm11,0a1,1,0,1,0,.95.95A.94.94,0,0,0,392,198.5Zm-38.49-7.41a1,1,0,1,0,.95.95A1,1,0,0,0,353.5,191.09Zm11,0a1,1,0,1,0,.95.95A1,1,0,0,0,364.5,191.09Zm11,0a1,1,0,1,0,1,.95A1,1,0,0,0,375.49,191.09Zm11,0a1,1,0,1,0,.95.95A.95.95,0,0,0,386.49,191.09Zm11.07,0h-.07a1,1,0,1,0,0,1.91.91.91,0,0,0,.58-.2h0C397.91,192.23,397.74,191.66,397.56,191.1ZM359,213.84a1,1,0,1,0,.95.95A1,1,0,0,0,359,213.84Zm11,0a1,1,0,1,0,1,.95A1,1,0,0,0,370,213.84Zm11,0a1,1,0,0,0,0,1.91,1,1,0,1,0,0-1.91Zm11,0a1,1,0,1,0,.95.95A.95.95,0,0,0,392,213.84Zm11,0h0a1,1,0,1,0,0,1.91.86.86,0,0,0,.36-.08C403.26,215.14,403.15,214.53,403,213.84Zm-38.53-7.41a1,1,0,1,0,.95,1A1,1,0,0,0,364.5,206.43Zm11,0a1,1,0,1,0,1,1A1,1,0,0,0,375.49,206.43Zm11,0a1,1,0,1,0,.95,1A1,1,0,0,0,386.49,206.43Zm11,0a1,1,0,1,0,0,1.91,1,1,0,0,0,0-1.91Z" style="fill:#37474f"></path><path d="M374.24,174.63c-2.9,8.63-17.44,37.66-26,39.28-13.36,2.54-33.54-.26-42.12-.91-4.67-.36,2.17-29.3,7-27.28,6.3,2.62,26.42,3.78,28.86,4s14.26-13,23.31-22.07C372.87,160.1,377.91,163.7,374.24,174.63Z" style="fill:#ad6359"></path><path d="M282.23,182.75a3.93,3.93,0,0,0,.53,4.46,5.89,5.89,0,0,0-2.67,2.95c-.81,2.26,2.39,4.53,2.39,4.53a7.2,7.2,0,0,0-2.32,3.55c-.55,2.25,2.35,5,2.35,5a6.33,6.33,0,0,0-.07,4.41c1.51,3.77,7.6,4.87,11.47,5.61s15.54-.79,17.8-.86L318,188.85s-9.1-9-22.42-9.73C291.64,178.92,283.77,180.09,282.23,182.75Z" style="fill:#ad6359"></path><path d="M283,186.85c4.23-.81,8.47-.32,12.74-.07.09,0,.08.16,0,.15-4.24-.3-8.48.25-12.72.12C282.91,187.05,282.9,186.87,283,186.85Z" style="fill:#263238"></path><path d="M282.63,194.38a11.08,11.08,0,0,1,2.93.11c1,.12,2.07.25,3.1.39,2.07.3,4.12.64,6.17,1,.09,0,.08.16,0,.14-2.06-.28-4.12-.54-6.19-.74-1-.11-2.07-.2-3.11-.28a13.57,13.57,0,0,1-2.91-.38A.14.14,0,0,1,282.63,194.38Z" style="fill:#263238"></path><path d="M282.6,203.24a7.65,7.65,0,0,1,2.64.25l2.81.44c1.88.28,3.76.57,5.64.79a.08.08,0,1,1,0,.15c-1.91-.22-3.84-.4-5.75-.64l-2.82-.35a7.5,7.5,0,0,1-2.53-.55S282.56,203.25,282.6,203.24Z" style="fill:#263238"></path><path d="M334.61,188.43l-.2,29.1s12.95-.46,16.69-3.41,18.68-23.37,23.32-38.09-2-15.49-9.62-8.19-21.72,20.78-22.42,21S334.61,188.43,334.61,188.43Z" style="fill:#455a64"></path><path d="M371,168.77a1,1,0,1,1-1-1A1,1,0,0,1,371,168.77Zm-22.41,14.55h0l-1.35,1.27a1,1,0,0,0,1.77-.48A1,1,0,0,0,348.54,183.32Zm10.46-.16a1,1,0,1,0,.95,1A1,1,0,0,0,359,183.16Zm11,0a1,1,0,1,0,1,1A.95.95,0,0,0,370,183.16Zm-5.49-7.41a1,1,0,1,0,.95.95A1,1,0,0,0,364.5,175.75ZM337,198.5a1,1,0,1,0,.95.95A.94.94,0,0,0,337,198.5Zm11,0a1,1,0,1,0,.95.95A1,1,0,0,0,348,198.5Zm11,0a1,1,0,1,0,.95.95A1,1,0,0,0,359,198.5Zm-16.5-7.41a1,1,0,1,0,.95.95A.95.95,0,0,0,342.5,191.09Zm11,0a1,1,0,1,0,.95.95A1,1,0,0,0,353.5,191.09Zm11,0a1,1,0,1,0,.95.95A1,1,0,0,0,364.5,191.09ZM337,213.84a1,1,0,1,0,.95.95A.95.95,0,0,0,337,213.84Zm11,0a1,1,0,0,0-1,.95,1,1,0,0,0,.62.89h0c.39-.11.76-.23,1.12-.35,0,0,0,0,0,0a1.06,1.06,0,0,0,.15-.53A1,1,0,0,0,348,213.84Zm-5.5-7.41a1,1,0,1,0,.95,1A1,1,0,0,0,342.5,206.43Zm11,0a1,1,0,1,0,.95,1A1,1,0,0,0,353.5,206.43Z" style="fill:#37474f"></path><path d="M339.43,215c-.25-8-.47-16.12.06-24.16,0-.07.12-.06.13,0,.5,8,.25,16.11,0,24.14A.08.08,0,0,1,339.43,215Z" style="fill:#263238"></path><path d="M354,211c2.49-3.85,9.36-12.26,18.93-30.25a0,0,0,1,1,.07,0,56.22,56.22,0,0,1-2.42,5.36c.45-.6.9-1.21,1.38-1.78,0-.05.13,0,.1,0a10.83,10.83,0,0,1-1.19,1.73c-.24.29-.49.57-.74.86-10,18.64-14.8,22.61-16,24.08C354.07,211.13,353.94,211.06,354,211Z" style="fill:#263238"></path></g></svg>